HIERARCHY
ROOT Hips
{
	OFFSET	0.00	0.00	0.00
	CHANNELS 6 Xposition Yposition Zposition Zrotation Xrotation Yrotation
	JOINT LeftUpLeg
	{
		OFFSET	 0.126116	-0.014019	-0.065224
		CHANNELS 3 Zrotation Xrotation Yrotation
		JOINT LeftLeg
		{
			OFFSET	 0.000000	 0.000000	 0.569914
			CHANNELS 3 Zrotation Xrotation Yrotation
			JOINT LeftFoot
			{
				OFFSET	 0.000000	 0.000000	 0.544423
				CHANNELS 3 Zrotation Xrotation Yrotation
				JOINT LeftToeBase
				{
					OFFSET	 0.000000	 0.000000	 0.207117
					CHANNELS 3 Zrotation Xrotation Yrotation
					End Site
					{
						OFFSET	 0.000000	 0.000000	 0.207117
					}
				}
			}
		}
	}
	JOINT RightUpLeg
	{
		OFFSET	-0.124023	-0.008373	-0.065224
		CHANNELS 3 Zrotation Xrotation Yrotation
		JOINT RightLeg
		{
			OFFSET	 0.000000	 0.000000	 0.570047
			CHANNELS 3 Zrotation Xrotation Yrotation
			JOINT RightFoot
			{
				OFFSET	 0.000000	 0.000000	 0.544354
				CHANNELS 3 Zrotation Xrotation Yrotation
				JOINT RightToeBase
				{
					OFFSET	 0.000000	 0.000000	 0.207540
					CHANNELS 3 Zrotation Xrotation Yrotation
					End Site
					{
						OFFSET	 0.000000	 0.000000	 0.207540
					}
				}
			}
		}
	}
	JOINT Spine
	{
		OFFSET	 0.000184	-0.007763	 0.117403
		CHANNELS 3 Zrotation Xrotation Yrotation
		JOINT Spine1
		{
			OFFSET	 0.000000	 0.000000	 0.137269
			CHANNELS 3 Zrotation Xrotation Yrotation
			JOINT Spine2
			{
				OFFSET	 0.000000	 0.000000	 0.156879
				CHANNELS 3 Zrotation Xrotation Yrotation
				JOINT LeftShoulder
				{
					OFFSET	 0.080501	-0.002496	 0.160144
					CHANNELS 3 Zrotation Xrotation Yrotation
					JOINT LeftArm
					{
						OFFSET	 0.000000	 0.000000	 0.164363
						CHANNELS 3 Zrotation Xrotation Yrotation
						JOINT LeftForeArm
						{
							OFFSET	 0.000000	 0.000000	 0.364576
							CHANNELS 3 Zrotation Xrotation Yrotation
							JOINT LeftHand
							{
								OFFSET	 0.000000	 0.000000	 0.360812
								CHANNELS 3 Zrotation Xrotation Yrotation
								JOINT LeftHandIndex1
								{
									OFFSET	 0.000000	 0.000000	 0.086006
									CHANNELS 3 Zrotation Xrotation Yrotation
									JOINT LeftHandIndex2
									{
										OFFSET	 0.000000	 0.000000	 0.047236
										CHANNELS 3 Zrotation Xrotation Yrotation
										JOINT LeftHandIndex3
										{
											OFFSET	-0.004284	-0.000551	 0.038166
											CHANNELS 3 Zrotation Xrotation Yrotation
											End Site
											{
												OFFSET	-0.004284	-0.000551	 0.038166
											}
										}
									}
								}
							}
						}
					}
				}
				JOINT Neck
				{
					OFFSET	 0.000000	 0.000000	 0.176489
					CHANNELS 3 Zrotation Xrotation Yrotation
					JOINT Head
					{
						OFFSET	 0.000000	-0.001747	 0.077940
						CHANNELS 3 Zrotation Xrotation Yrotation
						End Site
						{
							OFFSET	 0.000000	-0.001747	 0.077940
						}
					}
				}
				JOINT RightShoulder
				{
					OFFSET	-0.080363	 0.000306	 0.159706
					CHANNELS 3 Zrotation Xrotation Yrotation
					JOINT RightArm
					{
						OFFSET	 0.000000	 0.000000	 0.164196
						CHANNELS 3 Zrotation Xrotation Yrotation
						JOINT RightForeArm
						{
							OFFSET	 0.000000	 0.000000	 0.365611
							CHANNELS 3 Zrotation Xrotation Yrotation
							JOINT RightHand
							{
								OFFSET	 0.000000	 0.000000	 0.360648
								CHANNELS 3 Zrotation Xrotation Yrotation
								JOINT RightHandIndex1
								{
									OFFSET	 0.000000	 0.000000	 0.069977
									CHANNELS 3 Zrotation Xrotation Yrotation
									JOINT RightHandIndex2
									{
										OFFSET	 0.000000	 0.000000	 0.052305
										CHANNELS 3 Zrotation Xrotation Yrotation
										JOINT RightHandIndex3
										{
											OFFSET	 0.009002	-0.000782	 0.042196
											CHANNELS 3 Zrotation Xrotation Yrotation
											End Site
											{
												OFFSET	 0.009002	-0.000782	 0.042196
											}
										}
									}
								}
							}
						}
					}
				}
			}
		}
	}
}
MOTION
Frames:    5
Frame Time: 0.03333334
-4.426191	-16.272340	 0.164120	-33.853300	 8.010330	 1.693584	 4.520884	-22.006760	 174.193100	-1.643667	-39.927490	-0.193045	 0.058106	 84.601780	-0.526220	-2.385710	 28.479190	-0.000571	-2.490293	-22.884860	-178.751600	-0.117697	-40.847200	-0.004836	-0.173912	 85.529500	 0.411505	 2.407683	 17.355770	-0.225126	 6.257589	 7.980200	-0.743066	 10.910030	 5.408333	-2.546644	 13.277310	 3.454756	 0.480653	-115.582200	 89.397690	-153.649600	 56.155700	 60.068710	-78.322070	-3.695349	-4.417074	-20.703990	 6.716046	-2.198973	-5.335691	-3.812334	 37.924440	-2.927599	-2.450526	 36.184240	 0.754587	-1.378229	 35.397820	-2.634230	 0.459047	 2.662369	-0.636145	 3.992917	 6.859528	-0.825492	 94.724010	 86.915170	 171.583300	-53.520340	 70.360840	 71.692380	-3.222387	-13.018860	 25.771440	-24.166450	-3.187097	 9.583876	 6.437017	 35.671460	-0.771858	 2.830251	 35.756010	-7.813440	-2.350882	 35.473990	 5.254307
-4.425171	-16.271980	 0.168335	-33.878020	 8.050557	 1.783783	 4.508519	-22.307750	 174.124600	-1.731709	-40.513330	-0.272729	 0.007883	 84.797340	-0.556844	-2.385652	 28.492560	-0.000859	-2.455519	-23.187800	-178.767000	-0.091392	-41.289750	 0.043305	-0.408052	 85.697030	 0.703254	 2.407680	 17.665820	-0.219067	 6.202674	 7.973396	-0.825409	 10.832470	 5.193478	-2.564581	 13.194970	 3.188262	 0.508475	-115.616500	 89.392840	-153.589800	 55.876470	 59.375740	-77.970090	-3.650217	-4.246716	-21.190800	 6.055135	-2.195109	-5.339931	-3.812334	 37.924440	-2.927599	-2.450526	 36.184240	 0.754587	-1.378229	 35.397820	-2.634230	 0.448495	 2.552302	-0.600420	 3.969368	 6.756422	-0.855516	 94.719620	 86.895940	 171.561700	-53.381560	 69.848410	 71.829250	-3.214969	-12.959630	 26.072640	-23.813860	-3.186430	 9.585062	 6.437017	 35.671460	-0.771858	 2.830251	 35.756010	-7.813440	-2.350882	 35.473990	 5.254307
-4.422866	-16.270540	 0.165209	-33.955940	 8.043924	 1.835265	 4.535501	-23.110370	 174.048400	-1.812063	-41.621680	-0.330616	 0.290541	 85.131760	-0.885432	-2.385138	 28.608130	-0.003360	-2.418170	-23.798180	-178.717100	-0.055174	-42.230720	 0.116791	-0.804620	 85.975280	 1.176602	 2.407623	 18.084470	-0.210873	 6.122680	 8.074230	-0.900286	 10.687650	 4.871583	-2.567517	 13.006070	 2.767935	 0.549032	-114.817300	 89.355020	-154.309900	 55.146710	 58.132480	-77.429540	-3.576350	-3.989506	-22.158820	 5.032948	-2.178061	-5.348904	-3.812334	 37.924440	-2.927599	-2.450526	 36.184240	 0.754587	-1.378229	 35.397820	-2.634230	 0.418479	 2.236766	-0.566641	 3.899219	 6.688883	-0.916956	 94.749280	 86.877890	 171.483400	-52.811760	 68.829500	 71.812110	-3.283429	-13.033890	 26.932900	-23.293370	-3.182561	 9.589854	 6.437017	 35.671460	-0.771858	 2.830251	 35.756010	-7.813440	-2.350882	 35.473990	 5.254307
-4.418829	-16.267230	 0.159648	-34.122860	 8.156389	 1.855038	 4.708010	-24.344700	 174.002300	-1.972272	-43.433980	-0.365966	 0.691335	 85.645710	-1.285570	-2.384645	 28.716430	-0.005705	-2.380372	-25.084350	-178.597800	-0.092507	-43.910960	 0.162369	-1.391323	 86.393200	 1.789567	 2.407398	 18.741270	-0.197976	 5.985419	 8.410120	-0.977973	 10.445140	 4.471856	-2.545292	 12.705720	 2.251198	 0.593720	-113.361100	 89.282360	-155.624700	 53.661960	 56.977710	-76.859220	-3.058346	-4.200294	-23.870050	 5.031630	-2.146279	-5.356271	-3.812334	 37.924440	-2.927599	-2.450526	 36.184240	 0.754587	-1.378229	 35.397820	-2.634230	 0.378992	 1.737055	-0.545507	 3.782553	 6.589965	-0.787319	 94.817550	 86.834360	 171.298100	-51.640840	 67.402190	 71.766040	-3.237582	-13.308010	 28.466540	-22.696200	-3.187817	 9.583994	 6.437017	 35.671460	-0.771858	 2.830251	 35.756010	-7.813440	-2.350882	 35.473990	 5.254307
-4.414541	-16.263010	 0.154056	-34.289020	 8.377935	 1.781527	 4.751775	-25.723070	 174.023900	-2.159794	-45.207790	-0.491902	 0.756163	 86.140910	-1.433800	-2.383875	 28.884970	-0.009367	-2.276481	-26.584010	-178.488300	-0.132551	-45.630480	 0.243777	-1.616145	 86.793260	 2.063152	 2.406904	 19.557990	-0.181861	 5.835739	 8.828556	-0.986291	 10.220730	 4.105875	-2.488291	 12.473010	 1.786336	 0.633467	-112.446300	 89.217900	-156.395300	 52.265930	 56.168470	-76.534880	-3.415623	-4.210251	-25.790720	 4.524760	-2.122390	-5.362922	-3.812334	 37.924440	-2.927599	-2.450526	 36.184240	 0.754587	-1.378229	 35.397820	-2.634230	 0.386232	 1.218359	-0.564060	 3.721316	 6.445274	-0.578917	 94.870850	 86.760460	 171.087400	-50.534850	 66.291840	 72.068050	-2.935059	-13.592820	 29.872460	-22.267040	-3.181239	 9.590905	 6.437017	 35.671460	-0.771858	 2.830251	 35.756010	-7.813440	-2.350882	 35.473990	 5.254307
